<?xml version="1.0" encoding="utf-8"?>
<!-- Generator: Adobe Illustrator 16.0.0, SVG Export Plug-In . SVG Version: 6.00 Build 0)  -->
<!DOCTYPE svg PUBLIC "-//W3C//DTD SVG 1.1//EN" "http://www.w3.org/Graphics/SVG/1.1/DTD/svg11.dtd">
<svg version="1.1" id="Layer_1" xmlns="http://www.w3.org/2000/svg" xmlns:xlink="http://www.w3.org/1999/xlink" x="0px" y="0px"
	 width="120px" height="120px" viewBox="0 0 120 120" enable-background="new 0 0 120 120" xml:space="preserve">
<g id="icomoon-ignore">
	<line fill="#FFFFFF" stroke="#449FDB" x1="0" y1="0" x2="0" y2="0"/>
</g>
<path fill="#FFFFFF" d="M104.704,85.607H17.2C8.928,85.607,0,79.967,0,70.859V56.68c0-4.168,3.448-7.404,6.652-8.64l7.552-2.664
	l9.632-20.608c2.036-4.348,6.448-7.156,11.248-7.156H86.8c4.82,0,9.248,2.832,11.269,7.216l9.324,20.432l7.229,3.136
	c3.313,1.412,5.38,4.676,5.38,8.508v13.956C120,79.408,113.568,85.607,104.704,85.607z M35.084,21.608
	c-3.252,0-6.244,1.904-7.624,4.848l-9.988,21.368c-0.228,0.488-0.64,0.86-1.148,1.04l-8.288,2.92C6.108,52.532,4,54.512,4,56.672
	v14.18C4,77.279,10.828,81.6,17.2,81.6h87.5c6.647,0,11.296-4.416,11.296-10.752V56.892c0-2.204-1.141-4.056-2.969-4.832
	l-7.939-3.448c-0.447-0.196-0.816-0.556-1.023-1.004l-9.641-21.124c-1.367-2.964-4.363-4.884-7.636-4.884L35.084,21.608
	L35.084,21.608z"/>
<path fill="#FFFFFF" d="M61.061,57.024c-25.208,0-47.583-4.996-57.009-12.728c-0.856-0.7-0.98-1.96-0.28-2.816
	c0.704-0.852,1.96-0.98,2.816-0.276c8.62,7.068,30.512,11.82,54.477,11.82c23.664,0,45.459-4.672,54.235-11.624
	c0.868-0.688,2.124-0.54,2.812,0.328c0.688,0.864,0.541,2.124-0.326,2.812C108.204,52.124,85.936,57.024,61.061,57.024z"/>
<path fill="#FFFFFF" d="M20.644,74.42c-3.86,0-7-3.145-7-7c0-3.859,3.14-7,7-7s7,3.141,7,7C27.644,71.275,24.5,74.42,20.644,74.42z
	 M20.644,64.42c-1.656,0-3,1.344-3,3s1.344,3,3,3c1.656,0,3-1.344,3-3S22.296,64.42,20.644,64.42z"/>
<path fill="#FFFFFF" d="M100.641,74.42c-3.861,0-7-3.145-7-7c0-3.859,3.139-7,7-7c3.859,0,7,3.141,7,7
	C107.641,71.275,104.5,74.42,100.641,74.42z M100.641,64.42c-1.656,0-3,1.344-3,3s1.344,3,3,3c1.655,0,3-1.344,3-3
	S102.296,64.42,100.641,64.42z"/>
<path fill="#FFFFFF" d="M24,102.393c-6.616,0-12-5.389-12-12v-8.781h4v8.781c0,4.412,3.588,8,8,8s8-3.588,8-8v-8.781h4v8.781
	C36,97.008,30.612,102.393,24,102.393z"/>
<path fill="#FFFFFF" d="M100,102.393c-6.616,0-12-5.389-12-12v-8.781h4v8.781c0,4.412,3.584,8,8,8c4.412,0,8-3.588,8-8v-8.781h4
	v8.781C112,97.008,106.611,102.393,100,102.393z"/>
<path fill="#FFFFFF" d="M80,73.607H40c-1.104,0-2-0.899-2-2s0.896-2,2-2h40c1.1,0,2,0.899,2,2S81.1,73.607,80,73.607z"/>
<path fill="#FFFFFF" d="M30.956,34.328c-0.552,0-1.1-0.228-1.5-0.672c-0.732-0.828-0.656-2.092,0.172-2.824l5.416-4.796
	c0.828-0.732,2.088-0.656,2.824,0.172c0.728,0.824,0.652,2.088-0.176,2.82l-5.416,4.8C31.9,34.16,31.424,34.328,30.956,34.328z"/>
<path fill="#FFFFFF" d="M30.956,43.908c-0.532,0-1.06-0.208-1.452-0.628c-0.76-0.8-0.724-2.068,0.08-2.824L44.792,26.08
	c0.8-0.76,2.068-0.724,2.828,0.08c0.76,0.8,0.724,2.068-0.084,2.828L32.328,43.36C31.936,43.72,31.444,43.908,30.956,43.908z"/>
</svg>
